# xmcd
#
# Track frame offsets:
#	150
#	12750
#	22223
#	37147
#	46855
#	60552
#	70846
#	83213
#	92177
#	104393
#	113631
#
# Disc length: 1658 seconds
#
# Revision: 1
# Processed by: cddbd v1.5.2PL0 Copyright (c) Steve Scherf et al.
# Submitted via: audiograbber 1.83.01
#
DISCID=8c06780b
DTITLE=Hank Williams Jr. - Singing My Songs - Johnny Cash
DYEAR=1970
DGENRE=Country
TTITLE0=Folsom Prison Blues
TTITLE1=Understand Your Man
TTITLE2=I Still Miss Someone
TTITLE3=I Walk The Line
TTITLE4=Give My Love To Rose
TTITLE5=Hey Porter
TTITLE6=Ring Of Fire
TTITLE7=Home Of The Blues
TTITLE8=Tennessee Flat Top Box
TTITLE9=Big River
TTITLE10=Guess Things Happen That Way
EXTD=
EXTT0=
EXTT1=
EXTT2=
EXTT3=
EXTT4=
EXTT5=
EXTT6=
EXTT7=
EXTT8=
EXTT9=
EXTT10=
PLAYORDER=
